# xmcd CD database file
#
# Track frame offsets:
#	150
#	12113
#	28225
#	41324
#	71959
#	85367
#	104320
#	122170
#	136320
#	164920
#
# Disc length: 2372 seconds
#
# Revision: 0
# Processed by: cddbd v1.4PL0 Copyright (c) Steve Scherf et al.
# Submitted via: CDex 1.50Beta5
#
DISCID=8b09420a
DTITLE=Billie Holiday - Lady Day Sings
DYEAR=2002
DGENRE=Jazz
TTITLE0=Lady Sings The Blues
TTITLE1=A Fine Romance
TTITLE2=I Only Have Eyes For You
TTITLE3=Embraceable You
TTITLE4=What A Little Moonlight Can Do
TTITLE5=They Can't Take That Away From Me
TTITLE6=I've Got My Love To Keep Me Warm
TTITLE7=Good Morning, Heartache
TTITLE8=Body And Soul
TTITLE9=God Bless The Child
EXTD=YEAR: 2002
EXTT0=
EXTT1=
EXTT2=
EXTT3=
EXTT4=
EXTT5=
EXTT6=
EXTT7=
EXTT8=
EXTT9=
PLAYORDER=
